<?xml version="1.0" encoding="utf-8"?>
<svg version="1.1" xmlns="http://www.w3.org/2000/svg" xmlns:xlink="http://www.w3.org/1999/xlink" x="0px" y="0px" width="49px"
     height="49px" viewBox="0 0 49 58" enable-background="new 0 0 49 49" xml:space="preserve">
<g id="outer">
</g>
  <g id="middle">
</g>
  <g id="inner">
	<g>
		<path fill="none" stroke="#9EC3D6" stroke-width="4" stroke-miterlimit="10" d="M6.27,10.68c-2.361,3.512-3.74,7.74-3.74,12.29
			c0,12.181,9.874,22.055,22.055,22.055c12.182,0,22.055-9.874,22.055-22.055c0-4.55-1.379-8.778-3.74-12.29"/>
    <path fill="none" stroke="#9EC3D6" stroke-width="4" stroke-miterlimit="10" d="M11.584,0.516"/>
    <path fill="none" stroke="#9EC3D6" stroke-width="4" stroke-miterlimit="10" d="M12.714,12.517
			c-2.56,2.837-4.13,6.581-4.13,10.702c0,8.834,7.165,16,16,16c8.835,0,16-7.166,16-16c0-4.121-1.572-7.865-4.13-10.702"/>
    <path fill="none" stroke="#9EC3D6" stroke-width="4" stroke-miterlimit="10" d="M19.021,14.914
			c-2.675,1.796-4.438,4.846-4.438,8.31c0,5.522,4.478,9.999,10,9.999c5.519,0,10-4.477,10-9.999c0-3.463-1.764-6.514-4.438-8.309"
    />
	</g>
</g>
</svg>
